# xmcd
#
# Track frame offsets:
# 150
# 26065
# 43659
# 59106
# 75125
# 98959
# 122509
# 137815
# 152776
# 172066
# 187921
# 212354
# 232642
# 250027
# 264509
# 286866
# 309704
#
# Disc length: 4453 seconds
#
# Revision: 0
# Processed by: cddbd v1.5PL3 Copyright (c) Steve Scherf et al.
# Submitted via: Audion 3.0.2 (http://www.panic.com/audion/)
#
DISCID=df116311
DTITLE=robert - mix
DYEAR=1900
DGENRE=
TTITLE0=t1
TTITLE1=t2
TTITLE2=t3
TTITLE3=t4
TTITLE4=t5
TTITLE5=t6
TTITLE6=t7
TTITLE7=t8
TTITLE8=t9
TTITLE9=t1o
TTITLE10=t11
TTITLE11=t12
TTITLE12=t13
TTITLE13=t14
TTITLE14=t15
TTITLE15=t16
TTITLE16=t17
EXTD=
EXTT0=
EXTT1=
EXTT2=
EXTT3=
EXTT4=
EXTT5=
EXTT6=
EXTT7=
EXTT8=
EXTT9=
EXTT10=
EXTT11=
EXTT12=
EXTT13=
EXTT14=
EXTT15=
EXTT16=
PLAYORDER=
